<svg xmlns="http://www.w3.org/2000/svg" viewBox="0 0 497.03 496.33"><defs><style>.cls-1{fill:#fff;}</style></defs><title>자산 1</title><g id="레이어_2" data-name="레이어 2"><g id="레이어_1-2" data-name="레이어 1"><path class="cls-1" d="M296.79,381c.71-2.35,1.32-4.73,2.16-7,4.77-13.12,9.59-26.23,14.39-39.34a14.51,14.51,0,0,0,.81-2.78c1-6.54,6.41-8.76,11.2-11.54,7.12-4.14,14.3-8.17,21.45-12.26q17.08-9.77,34.14-19.57c10.42-6,20.8-12.08,31.23-18.07,6.66-3.82,13.4-7.5,20.06-11.31a52.24,52.24,0,0,0,4.45-3.24L335.48,197.64c-3.14,9.06-5.87,17.13-8.74,25.16-2.22,6.22-4.66,12.37-6.91,18.58-3.88,10.7-7.67,21.44-11.55,32.14-2.11,5.82-4.33,11.6-6.48,17.41q-4,10.8-8,21.62c-3.78,10.34-7.58,20.66-11.29,31-4.24,11.84-8.34,23.74-12.6,35.58-3.52,9.78-7.2,19.5-10.78,29.26q-5,13.57-9.84,27.18c-4.16,11.61-8.23,23.25-12.44,34.84-2.74,7.54-5.73,15-8.44,22.54-.86,2.41-2.09,3.4-4.75,3.36-9.9-.14-19.8,0-29.7-.06-1,0-1.94-.11-3.32-.2,1-3.44,1.89-6.65,2.92-9.81q7.82-24.12,15.72-48.21c3.73-11.33,7.66-22.59,11.38-33.92,3.21-9.78,6.23-19.62,9.34-29.43,3.23-10.19,6.39-20.41,9.73-30.57,2.4-7.3,5.13-14.49,7.56-21.79,3-9.16,5.91-18.38,8.89-27.57,3.12-9.59,6.31-19.17,9.44-28.76,3.52-10.79,7-21.61,10.51-32.4q7.88-24.07,15.82-48.12c2.3-7,4.36-14.12,6.88-21.06a22.5,22.5,0,0,1,16.53-14.87c9-2.26,17.06.12,24.82,4.71,8.39,5,17,9.64,25.42,14.49,11.47,6.58,22.89,13.23,34.36,19.81,12.21,7,24.47,13.9,36.65,20.95,14.53,8.41,29,17,43.5,25.4,4.66,2.71,9.6,4.93,13,9.51,6.68,9.1,4.64,22.11-4.83,28-14.69,9.12-29.82,17.54-44.81,26.16-15.18,8.73-30.43,17.35-45.65,26-13.21,7.52-26.44,15-39.63,22.56q-21.69,12.43-43.31,25c-4.58,2.65-9.14,5.36-13.73,8a35.34,35.34,0,0,1-3.5,1.54Z"/><path class="cls-1" d="M204.78,128.58c-2.09,5.88-4.15,11.77-6.28,17.64-4.18,11.5-8.62,22.9-12.48,34.5-1.42,4.28-5.13,5.1-8.07,7-5,3.26-10.27,6.08-15.44,9-8.82,5.07-17.67,10.09-26.49,15.17-7.8,4.5-15.58,9-23.37,13.58Q95,235.84,77.28,246.11c-4.78,2.76-9.62,5.42-14.4,8.17a22.76,22.76,0,0,0-2.64,2.19c2.45,1.75,4.62,3.42,6.91,4.91C75,266.53,83,271.59,90.9,276.73c15.2,9.88,30.19,20.11,45.64,29.58,11.41,7,23.41,13.05,35.19,19.45,3.3,1.79,4.05,1.3,4-2.43-.41-18.54-.74-37.09-1.37-55.63a19.53,19.53,0,0,1,6.24-15.52c5.67-5.52,11.3-11.1,16.77-16.82,2.28-2.38,5.11-3.75,7.94-2.91a223.88,223.88,0,0,1,22,7.75c3.13,1.29,4.21,4.62,4.55,8.12.67,6.83,1.68,13.62,2.5,20.43.89,7.45-.53,14-5.77,19.93-9.76,11.13-18.95,22.77-28.35,34.22-2.29,2.78-4.67,5.51-6.67,8.49a10.59,10.59,0,0,1-6.91,4.42c-10.73,2.39-21.65,3.71-32.58,2.59a120.6,120.6,0,0,1-23.94-4.73c-12.78-4-25.59-8.31-37.73-13.93-14.33-6.63-28-14.73-41.86-22.33-6.82-3.74-13.49-7.77-20.2-11.7-7.56-4.42-15.36-8.5-22.57-13.43-6.88-4.7-8.52-12-7.44-20C1.16,246,5,241.68,10.18,238.58c9.06-5.45,18.3-10.62,27.49-15.85,11.87-6.75,23.8-13.38,35.63-20.18,11.16-6.41,22.17-13.08,33.33-19.47,18.73-10.71,37.54-21.27,56.3-31.93,8.85-5,17.62-10.21,26.47-15.25,4.84-2.76,9.76-5.36,14.65-8ZM186.51,332.29c4.63-13.36,8.85-26.22,13.6-38.89,1.93-5.15,1.37-11.52,8.49-14.45,4.3-1.77,4.27-8.08,1.43-11.76-1.95-2.52-7.76-3.46-10.51-1.69-4.38,2.82-5.12,6.72-2.74,11.66.7,1.45.45,3.52.16,5.22s-1.27,3-1.8,4.52q-4.55,13.22-9,26.46c-1.86,5.48-3.7,11-5.59,16.6Z"/><path class="cls-1" d="M317.81,0c-1.16,3.74-2.18,7.12-3.26,10.47-4.71,14.66-9.4,29.32-14.19,44-3.23,9.88-6.67,19.69-9.91,29.57-5.07,15.45-10,30.92-15.08,46.38q-5.73,17.59-11.52,35.16-7.84,23.94-15.67,47.89c-1.14,3.5-2.05,7.08-3.27,10.55a12.24,12.24,0,0,1-10.1,7.67c-5.52.44-10.55-1.34-15.54-3.19-4.13-1.53-8.39-3.05-12-5.43-6-3.94-6-9.72-4.15-15.41,2.6-7.8,5.73-15.43,8.6-23.14,3-8,6-16,8.87-24,4.7-13.13,9.21-26.34,14-39.45,4-11.08,8.4-22,12.41-33.1,3.91-10.79,7.47-21.71,11.34-32.52,2.92-8.14,6.14-16.17,9.14-24.28,3.56-9.62,7-19.29,10.61-28.9.34-.9,1.54-2.09,2.36-2.1C292.69,0,305,0,317.81,0Z"/><path class="cls-1" d="M186.51,332.29l-6-2.33c1.89-5.62,3.73-11.11,5.59-16.6q4.49-13.24,9-26.46c.53-1.54,1.53-3,1.8-4.52s.54-3.78-.16-5.22c-2.38-4.94-1.64-8.84,2.74-11.66,2.74-1.77,8.56-.83,10.51,1.69,2.84,3.68,2.87,10-1.43,11.76-7.13,2.93-6.56,9.3-8.49,14.45C195.36,306.07,191.14,318.93,186.51,332.29Z"/></g></g></svg>